#N canvas 358 257 375 336 10;
#N canvas 22 18 1278 728 oscs 0;
#X obj 160 549 vsl 15 128 0 2 0 0 empty empty empty 0 -9 0 10 -262144
-1 -1 10414 1;
#X obj 176 681 s ratio;
#X obj 706 529 catch~ suma;
#X obj 286 580 random 100;
#X obj 295 636 / 50;
#X obj 19 24 tgl 150 0 empty empty empty 17 7 0 10 -262144 -1 -1 0
1;
#X floatatom 622 716 5 0 0 0 - - -;
#X msg 697 712 23;
#X obj 926 636 lop~ 0.1;
#X floatatom 906 678 5 0 0 0 - - -;
#X msg 981 674 23;
#X floatatom 906 795 5 0 0 0 - - -;
#X msg 981 791 23;
#X obj 127 719 freeverb~;
#X obj 128 769 dac~;
#X msg 110 294 damping \$1;
#X msg 110 338 width \$1;
#X msg 110 382 wet \$1;
#X msg 110 426 dry \$1;
#X msg 144 449 print;
#X msg 163 488 freeze \$1;
#X msg 168 525 bypass \$1;
#X obj 168 506 tgl 15 0 empty empty empty 0 -6 0 8 -262144 -1 -1 0
1;
#X obj 163 469 tgl 15 0 empty empty empty 0 -6 0 8 -262144 -1 -1 0
1;
#X obj 122 403 hsl 60 18 0 1 0 1 empty empty dry 2 9 1 12 -225271 -1
-1 5900 0;
#X obj 122 359 hsl 60 18 0 1 0 1 empty empty wet 2 9 1 12 -225271 -1
-1 5900 0;
#X obj 122 315 hsl 60 18 0 1 0 1 empty empty width 2 9 1 12 -262131
-1 -1 5900 0;
#X obj 122 271 hsl 60 18 0 2 0 1 empty empty damping 2 9 1 12 -261689
-1 -1 0 0;
#X floatatom 92 230 3 0 0 0 - - -;
#X floatatom 92 275 3 0 0 0 - - -;
#X floatatom 92 320 3 0 0 0 - - -;
#X floatatom 92 363 3 0 0 0 - - -;
#X floatatom 92 407 3 0 0 0 - - -;
#X obj 926 753 lop~ 1;
#X obj 644 662 lop~ 0.5;
#X obj 319 547 metro 83;
#X obj 443 560 + 1;
#X obj 358 669 vline~;
#X obj 375 785 *~;
#X obj 447 775 *~;
#X msg 110 249 roomsize \$1;
#X obj 122 226 hsl 60 18 0.11 1.1 0 1 empty empty roomsize 2 9 1 12
-261689 -1 -1 5400 0;
#X obj 472 719 *~ 3;
#X msg 371 622 1 1 \, 0 222 1;
#X obj 507 664 vcf~ 23 23;
#X obj 777 733 vcf~ 23 23;
#X obj 827 631 vcf~ 23 23;
#X obj 263 291 / 10;
#X obj 351 309 route 0;
#X obj 281 315 f;
#X obj 324 219 t b b;
#X obj 358 289 random 13;
#X obj 270 268 *;
#X obj 435 538 random 7;
#X obj 304 251 random 5;
#X obj 414 411 route 0;
#X msg 466 455 1;
#X msg 415 452 1;
#X msg 506 451 0;
#X msg 523 422 0;
#X obj 462 488 &&;
#X obj 505 498 route 1;
#X msg 592 545 1;
#X msg 516 532 0;
#X obj 432 718 *~ 4;
#X obj 509 715 *~ 4;
#X obj 661 228 osssccc;
#X obj 539 99 osssccc;
#X obj 539 121 osssccc;
#X obj 485 124 osssccc;
#X obj 485 100 osssccc;
#X obj 485 146 osssccc;
#X obj 539 145 osssccc;
#X obj 658 97 osssccc;
#X obj 658 119 osssccc;
#X obj 604 122 osssccc;
#X obj 604 98 osssccc;
#X obj 604 144 osssccc;
#X obj 658 143 osssccc;
#X obj 772 96 osssccc;
#X obj 772 118 osssccc;
#X obj 718 121 osssccc;
#X obj 718 97 osssccc;
#X obj 718 143 osssccc;
#X obj 772 142 osssccc;
#X obj 888 95 osssccc;
#X obj 888 117 osssccc;
#X obj 834 120 osssccc;
#X obj 834 96 osssccc;
#X obj 834 142 osssccc;
#X obj 888 141 osssccc;
#X obj 1001 91 osssccc;
#X obj 1001 113 osssccc;
#X obj 947 116 osssccc;
#X obj 947 92 osssccc;
#X obj 947 138 osssccc;
#X obj 1001 137 osssccc;
#X obj 542 181 osssccc;
#X obj 542 203 osssccc;
#X obj 488 206 osssccc;
#X obj 488 182 osssccc;
#X obj 488 228 osssccc;
#X obj 542 227 osssccc;
#X obj 661 182 osssccc;
#X obj 661 204 osssccc;
#X obj 607 207 osssccc;
#X obj 607 183 osssccc;
#X obj 607 229 osssccc;
#X obj 779 182 osssccc;
#X obj 779 204 osssccc;
#X obj 725 207 osssccc;
#X obj 725 183 osssccc;
#X obj 725 229 osssccc;
#X obj 779 228 osssccc;
#X obj 803 410 osssccc;
#X obj 681 281 osssccc;
#X obj 681 303 osssccc;
#X obj 627 306 osssccc;
#X obj 627 282 osssccc;
#X obj 627 328 osssccc;
#X obj 681 327 osssccc;
#X obj 800 279 osssccc;
#X obj 800 301 osssccc;
#X obj 746 304 osssccc;
#X obj 746 280 osssccc;
#X obj 746 326 osssccc;
#X obj 800 325 osssccc;
#X obj 914 278 osssccc;
#X obj 914 300 osssccc;
#X obj 860 303 osssccc;
#X obj 860 279 osssccc;
#X obj 860 325 osssccc;
#X obj 914 324 osssccc;
#X obj 1030 277 osssccc;
#X obj 1030 299 osssccc;
#X obj 976 302 osssccc;
#X obj 976 278 osssccc;
#X obj 976 324 osssccc;
#X obj 1030 323 osssccc;
#X obj 1143 273 osssccc;
#X obj 1143 295 osssccc;
#X obj 1089 298 osssccc;
#X obj 1089 274 osssccc;
#X obj 1089 320 osssccc;
#X obj 1143 319 osssccc;
#X obj 684 363 osssccc;
#X obj 684 385 osssccc;
#X obj 630 388 osssccc;
#X obj 630 364 osssccc;
#X obj 630 410 osssccc;
#X obj 684 409 osssccc;
#X obj 803 364 osssccc;
#X obj 803 386 osssccc;
#X obj 749 389 osssccc;
#X obj 749 365 osssccc;
#X obj 749 411 osssccc;
#X obj 921 364 osssccc;
#X obj 921 386 osssccc;
#X obj 867 389 osssccc;
#X obj 867 365 osssccc;
#X obj 867 411 osssccc;
#X obj 921 410 osssccc;
#X obj 926 712 random 2000;
#X obj 638 621 random 1000;
#X obj 926 595 random 500;
#X obj 418 599 * 166;
#X obj 575 521 delay 9000;
#X connect 0 0 1 0;
#X connect 2 0 44 0;
#X connect 2 0 45 0;
#X connect 2 0 46 0;
#X connect 3 0 4 0;
#X connect 3 0 43 0;
#X connect 4 0 0 0;
#X connect 5 0 35 0;
#X connect 6 0 44 2;
#X connect 7 0 44 2;
#X connect 8 0 46 1;
#X connect 9 0 46 2;
#X connect 10 0 46 2;
#X connect 11 0 45 2;
#X connect 12 0 45 2;
#X connect 13 0 14 0;
#X connect 13 1 14 1;
#X connect 15 0 13 0;
#X connect 16 0 13 0;
#X connect 17 0 13 0;
#X connect 18 0 13 0;
#X connect 19 0 13 0;
#X connect 20 0 13 0;
#X connect 21 0 13 0;
#X connect 22 0 21 0;
#X connect 23 0 20 0;
#X connect 24 0 18 0;
#X connect 24 0 32 0;
#X connect 25 0 17 0;
#X connect 25 0 31 0;
#X connect 26 0 16 0;
#X connect 26 0 30 0;
#X connect 27 0 15 0;
#X connect 27 0 29 0;
#X connect 33 0 45 1;
#X connect 34 0 44 1;
#X connect 35 0 3 0;
#X connect 35 0 50 0;
#X connect 35 0 53 0;
#X connect 35 0 162 0;
#X connect 35 0 163 0;
#X connect 35 0 164 0;
#X connect 36 0 165 0;
#X connect 37 0 38 1;
#X connect 37 0 39 1;
#X connect 38 0 13 0;
#X connect 39 0 13 1;
#X connect 40 0 13 0;
#X connect 41 0 40 0;
#X connect 41 0 28 0;
#X connect 42 0 38 0;
#X connect 42 0 39 0;
#X connect 43 0 37 0;
#X connect 44 0 64 0;
#X connect 45 0 65 0;
#X connect 46 0 42 0;
#X connect 47 0 49 1;
#X connect 48 0 49 0;
#X connect 48 0 56 0;
#X connect 48 1 59 0;
#X connect 49 0 27 0;
#X connect 50 0 54 0;
#X connect 50 1 51 0;
#X connect 51 0 48 0;
#X connect 52 0 47 0;
#X connect 53 0 36 0;
#X connect 54 0 52 1;
#X connect 54 0 52 0;
#X connect 54 0 55 0;
#X connect 55 0 57 0;
#X connect 55 1 58 0;
#X connect 56 0 60 0;
#X connect 57 0 60 1;
#X connect 58 0 60 1;
#X connect 59 0 60 0;
#X connect 60 0 61 0;
#X connect 61 0 63 0;
#X connect 61 0 166 0;
#X connect 62 0 5 0;
#X connect 63 0 5 0;
#X connect 64 0 38 0;
#X connect 65 0 39 0;
#X connect 162 0 33 0;
#X connect 163 0 34 0;
#X connect 164 0 8 0;
#X connect 165 0 35 1;
#X connect 166 0 62 0;
#X coords 0 -1 1 1 177 177 1 3 3;
#X restore 118 128 pd oscs;
#X coords 0 -1 1 1 222 222 1 100 100;
