#N canvas 522 308 450 300 10;
#X obj 63 92 phasor~;
#X obj 249 144 vline~;
#X obj 239 214 *~;
#X obj 245 183 *~;
#X obj 123 109 tgl 15 0 empty empty empty 17 7 0 10 -262144 -1 -1 0
1;
#X obj 228 59 metro 123;
#X obj 164 108 f;
#X obj 202 112 + 1;
#X floatatom 66 157 5 0 0 0 - - -;
#X obj 187 193 sel 1;
#X obj 198 238 1;
#X obj 135 262 /;
#X obj 310 71 f;
#X obj 180 271 / 1.5;
#X obj 102 211 \$1;
#X obj 286 175 osc~ \$2;
#X obj 298 24 loadbang;
#X obj 125 167 b;
#X obj 310 231 tabread4~ wavformD;
#X obj 356 160 phasor~ \$2;
#X obj 350 184 *~ 512;
#X obj 349 205 +~ 1;
#X obj 390 126 * 1.2;
#X obj 400 87 \$2;
#X obj 394 66 loadbang;
#X msg 283 109 0.15 0.3 \, 0 \$1 21;
#X obj 203 153 > 32;
#X obj 248 266 throw~ audioD;
#X connect 1 0 3 0;
#X connect 1 0 3 1;
#X connect 2 0 27 0;
#X connect 3 0 2 0;
#X connect 4 0 5 0;
#X connect 5 0 6 0;
#X connect 5 0 12 0;
#X connect 6 0 7 0;
#X connect 6 0 8 0;
#X connect 6 0 11 1;
#X connect 6 0 17 0;
#X connect 6 0 26 0;
#X connect 7 0 6 1;
#X connect 9 0 10 0;
#X connect 10 0 6 0;
#X connect 11 0 5 1;
#X connect 11 0 13 0;
#X connect 12 0 25 0;
#X connect 13 0 12 1;
#X connect 14 0 11 0;
#X connect 16 0 4 0;
#X connect 17 0 14 0;
#X connect 18 0 2 1;
#X connect 19 0 20 0;
#X connect 20 0 21 0;
#X connect 21 0 18 0;
#X connect 22 0 19 0;
#X connect 23 0 22 0;
#X connect 24 0 23 0;
#X connect 25 0 1 0;
#X connect 26 0 9 0;
#X coords 0 -1 1 1 85 60 1 100 100;
