#N canvas 103 52 618 616 10;
#X obj 359 40 \$0;
#X msg 280 16 bang;
#X obj 323 131 table wavform\$0;
#X obj 54 240 tabread4~ wavform\$0;
#X obj 60 189 phasor~;
#X floatatom 198 138 5 0 0 0 - - -;
#X obj 60 217 *~ 512;
#X obj 183 258 tabread4~ wavform\$0;
#X obj 189 207 phasor~;
#X obj 189 235 *~ 512;
#X obj 179 287 *~ 0.02;
#X obj 50 269 *~ 0.03;
#X obj 187 166 * 1.51535;
#X obj 231 419 tabread4~ wavform\$0;
#X obj 237 368 phasor~;
#X obj 237 396 *~ 512;
#X obj 235 328 * 1.33334;
#X obj 202 22 loadbang;
#X obj 221 99 *;
#X msg 447 138 1;
#X obj 417 220 f;
#X floatatom 423 277 5 0 0 0 - - -;
#X obj 518 307 sel 1;
#X msg 591 283 0;
#X obj 491 218 + 1;
#X floatatom 550 245 5 0 0 0 - - -;
#X floatatom 570 213 5 0 0 0 - - -;
#X msg 366 63 \; wavform\$1 sinesum 515 8 5 4 2 2 1 \; wavform\$1 normalize
\;;
#X obj 475 426 /;
#X obj 313 197 t b f;
#X obj 446 351 t b f;
#X obj 437 178 metro 444;
#X obj 164 559 throw~ audio;
#X obj 177 520 /~;
#X obj 323 485 line~;
#X msg 365 446 \$1 12;
#X obj 497 266 > 13;
#X obj 230 68 \$1;
#X obj 437 390 \$2;
#X obj 37 139 switch~;
#X obj 101 117 tgl 15 1 empty empty empty 17 7 0 10 -262144 -1 -1 1
1;
#X obj 227 449 *~ 0.04;
#X connect 0 0 27 0;
#X connect 1 0 0 0;
#X connect 3 0 11 0;
#X connect 4 0 6 0;
#X connect 5 0 4 0;
#X connect 5 0 12 0;
#X connect 5 0 16 0;
#X connect 6 0 3 0;
#X connect 7 0 10 0;
#X connect 8 0 9 0;
#X connect 9 0 7 0;
#X connect 10 0 33 0;
#X connect 11 0 33 0;
#X connect 12 0 8 0;
#X connect 13 0 41 0;
#X connect 14 0 15 0;
#X connect 15 0 13 0;
#X connect 16 0 14 0;
#X connect 17 0 0 0;
#X connect 17 0 19 0;
#X connect 18 0 5 0;
#X connect 19 0 31 0;
#X connect 20 0 24 0;
#X connect 20 0 30 0;
#X connect 20 0 29 0;
#X connect 20 0 21 0;
#X connect 20 0 35 0;
#X connect 22 0 23 0;
#X connect 23 0 20 0;
#X connect 24 0 20 1;
#X connect 24 0 25 0;
#X connect 24 0 36 0;
#X connect 28 0 31 1;
#X connect 29 0 37 0;
#X connect 29 1 18 1;
#X connect 30 0 38 0;
#X connect 30 1 28 1;
#X connect 31 0 20 0;
#X connect 33 0 32 0;
#X connect 34 0 33 1;
#X connect 35 0 34 0;
#X connect 36 0 22 0;
#X connect 37 0 18 0;
#X connect 38 0 28 0;
#X connect 40 0 39 0;
#X connect 41 0 33 0;
#X coords 0 -1 1 1 55 33 1 100 100;
