#N canvas 30 -2 1123 728 10;
#X obj 357 137 catch~ audio;
#X obj 333 385 dac~;
#X obj 369 249 vcf~;
#X obj 349 218 *~;
#X obj 401 199 hsl 128 15 0 4 0 0 empty empty empty -2 -8 0 10 -262144
-1 -1 0 1;
#X obj 444 101 metro 200;
#X obj 439 22 tgl 15 0 empty empty empty 17 7 0 10 -262144 -1 -1 1
1;
#X obj 437 177 mtof;
#X obj 448 127 random 128;
#X obj 438 154 / 1.14536;
#X obj 179 352 delwrite~ del01 500;
#X obj 110 267 vd~ del01;
#X obj 178 229 vd~ del01;
#X msg 127 225 333;
#X msg 164 199 500;
#X obj 189 259 /~ 3;
#X obj 156 307 /~ 3;
#X obj 116 160 loadbang;
#X obj 421 227 lop~ 1000;
#X msg 443 272 66;
#X obj 169 28 goer-osc 100 1234;
#N canvas 98 21 986 677 bd 0;
#X obj 185 321 osc~;
#X obj 122 326 vline~;
#X obj 256 299 vline~;
#X obj 199 377 *~;
#X obj 243 334 *~;
#X obj 255 160 bng 15 250 50 0 empty empty empty 17 7 0 10 -262144
-1 -1;
#X msg 222 246 0;
#X obj 122 432 lop~ 444;
#X obj 113 182 t b b;
#X obj 121 265 pack 0 0;
#X msg 111 286 \$1 \, \$2 33 2;
#X obj 387 625 dac~;
#X obj 98 234 111;
#X obj 326 188 random 5;
#X obj 325 209 + 1;
#X obj 137 121 tgl 15 0 empty empty empty 17 7 0 10 -262144 -1 -1 0
1;
#X obj 540 192 vline~;
#X obj 510 244 *~;
#X obj 478 214 noise~;
#X obj 460 339 *~;
#X obj 326 166 metro 123;
#X obj 325 232 * 123;
#X obj 536 89 random 5;
#X obj 535 110 + 1;
#X obj 529 47 metro 123;
#X obj 535 133 * 123;
#X obj 597 242 + 100;
#X obj 564 263 vcf~ 11;
#X obj 144 232 55;
#X obj 621 334 *~;
#X obj 754 336 + 100;
#X obj 721 357 vcf~ 11;
#X obj 207 449 bp~ 6000 12;
#X obj 277 427 + 3;
#X obj 756 309 random 8000;
#X obj 599 215 random 7777;
#X obj 397 274 bp~ 2222 8;
#X obj 707 269 bp~ 1111 7;
#X obj 788 230 + 100;
#X obj 790 202 random 5432;
#X obj 399 243 + 100;
#X obj 401 215 random 5432;
#X obj 473 288 lop~ 234;
#X obj 547 320 lop~ 234;
#X obj 691 69 hsl 128 15 1.27 20000 1 1 empty empty empty -2 -8 0 10
-262144 -1 -1 12700 1;
#X obj 594 407 *~ 0.4;
#X obj 469 385 *~ 0.4;
#X obj 404 435 clip~ -0.3 0.3;
#X obj 477 467 clip~ -0.3 0.3;
#X obj 698 487 vline~;
#X obj 641 538 *~;
#X obj 671 514 *~;
#X obj 682 426 metro 984;
#X obj 593 485 bp~ 2222 2;
#X msg 667 457 0.7 \, 0 5;
#X obj 531 517 bp~ 2222 2;
#X obj 534 560 outlet~;
#X obj 418 561 outlet~;
#X obj 799 503 vline~;
#X obj 787 531 *~;
#X obj 777 416 metro 246;
#X msg 768 473 0 \, 0.0051 23 \, 0 23 23;
#X obj 283 403 random 23;
#X obj 634 586 delwrite~ del1 100;
#X obj 282 474 delread~ del1 22;
#X msg 510 167 0.7 \, 0 11 \, 0.4 11 22 \, 0 11 33 \, 0.14 11 88 \,
0 333 99;
#X msg 294 270 0.3 \, 0 222 55;
#X connect 0 0 3 0;
#X connect 1 0 0 0;
#X connect 2 0 4 0;
#X connect 2 0 4 1;
#X connect 3 0 32 0;
#X connect 3 0 7 0;
#X connect 4 0 3 1;
#X connect 5 0 6 0;
#X connect 5 0 8 0;
#X connect 5 0 66 0;
#X connect 5 0 62 0;
#X connect 6 0 0 1;
#X connect 7 0 11 0;
#X connect 7 0 11 1;
#X connect 8 0 12 0;
#X connect 8 1 28 0;
#X connect 9 0 10 0;
#X connect 10 0 1 0;
#X connect 12 0 9 0;
#X connect 13 0 14 0;
#X connect 14 0 21 0;
#X connect 15 0 20 0;
#X connect 15 0 24 0;
#X connect 15 0 52 0;
#X connect 15 0 60 0;
#X connect 16 0 17 0;
#X connect 16 0 17 1;
#X connect 17 0 42 0;
#X connect 17 0 43 0;
#X connect 18 0 27 0;
#X connect 18 0 31 0;
#X connect 18 0 36 0;
#X connect 18 0 37 0;
#X connect 18 0 53 0;
#X connect 18 0 59 0;
#X connect 19 0 46 0;
#X connect 20 0 13 0;
#X connect 21 0 5 0;
#X connect 21 0 20 1;
#X connect 22 0 23 0;
#X connect 23 0 25 0;
#X connect 24 0 22 0;
#X connect 24 0 34 0;
#X connect 24 0 35 0;
#X connect 24 0 39 0;
#X connect 24 0 41 0;
#X connect 25 0 24 1;
#X connect 25 0 65 0;
#X connect 26 0 27 1;
#X connect 27 0 19 0;
#X connect 28 0 9 1;
#X connect 29 0 45 0;
#X connect 30 0 31 1;
#X connect 31 0 29 0;
#X connect 32 0 11 0;
#X connect 32 0 11 1;
#X connect 33 0 32 2;
#X connect 34 0 30 0;
#X connect 35 0 26 0;
#X connect 36 0 19 0;
#X connect 37 0 29 0;
#X connect 38 0 37 1;
#X connect 39 0 38 0;
#X connect 40 0 36 1;
#X connect 41 0 40 0;
#X connect 42 0 19 1;
#X connect 43 0 29 1;
#X connect 44 0 43 1;
#X connect 44 0 42 1;
#X connect 45 0 48 0;
#X connect 46 0 47 0;
#X connect 47 0 11 0;
#X connect 47 0 57 0;
#X connect 48 0 11 1;
#X connect 49 0 51 0;
#X connect 49 0 51 1;
#X connect 50 0 55 0;
#X connect 51 0 50 1;
#X connect 52 0 54 0;
#X connect 53 0 50 0;
#X connect 54 0 49 0;
#X connect 55 0 56 0;
#X connect 55 0 63 0;
#X connect 58 0 59 1;
#X connect 59 0 11 1;
#X connect 59 0 11 0;
#X connect 60 0 61 0;
#X connect 61 0 58 0;
#X connect 62 0 33 0;
#X connect 64 0 11 1;
#X connect 64 0 11 0;
#X connect 65 0 16 0;
#X connect 66 0 2 0;
#X coords 0 -1 1 1 85 60 1 100 100;
#X restore 348 8 pd bd;
#X obj 778 439 cymbalsy;
#X obj 67 534 s trig;
#X obj 68 506 bng 15 250 50 0 empty empty empty 17 7 0 10 -262144 -1
-1;
#X obj 62 444 tgl 15 0 empty empty empty 17 7 0 10 -262144 -1 -1 1
1;
#X obj 63 401 loadbang;
#X obj 64 472 metro 12222;
#X obj 545 197 *~;
#X obj 587 208 hsl 128 15 0 1 0 0 empty empty empty -2 -8 0 10 -262144
-1 -1 0 1;
#X obj 542 167 *~;
#X obj 584 177 hsl 128 15 0 1 0 0 empty empty empty -2 -8 0 10 -262144
-1 -1 0 1;
#N canvas 516 153 583 440 phasor_r 0;
#X obj 107 377 dac~;
#X obj 160 150 rpole~;
#X obj 160 125 rzero_rev~;
#X obj 160 199 rpole~;
#X obj 160 174 rzero_rev~;
#X obj 160 247 rpole~;
#X obj 160 222 rzero_rev~;
#X obj 160 296 rpole~;
#X obj 160 271 rzero_rev~;
#X obj 272 279 expr~ 1 - 0.03 - 0.6*abs($v1-0.5)*abs($v1-0.5);
#X obj 315 243 phasor~ 1;
#X obj 84 87 catch~ phasor_out;
#X obj 344 154 hsl 128 15 0 6 0 0 empty empty empty -2 -8 0 10 -262144
-1 -1 0 1;
#X obj 195 372 outlet~;
#X connect 1 0 4 0;
#X connect 2 0 1 0;
#X connect 3 0 6 0;
#X connect 4 0 3 0;
#X connect 5 0 8 0;
#X connect 6 0 5 0;
#X connect 7 0 0 1;
#X connect 7 0 0 0;
#X connect 8 0 7 0;
#X connect 9 0 2 1;
#X connect 9 0 1 1;
#X connect 9 0 4 1;
#X connect 9 0 3 1;
#X connect 9 0 6 1;
#X connect 9 0 5 1;
#X connect 9 0 8 1;
#X connect 9 0 7 1;
#X connect 10 0 9 0;
#X connect 11 0 2 0;
#X connect 11 0 0 0;
#X connect 11 0 0 1;
#X connect 11 0 13 0;
#X connect 12 0 10 0;
#X restore 212 535 pd phasor_r;
#X obj 548 230 *~;
#X obj 588 234 hsl 128 15 0 1 0 0 empty empty empty -2 -8 0 10 -262144
-1 -1 0 0;
#X obj 128 526 vline~;
#X obj 123 552 *~;
#X obj 175 596 *~;
#X obj 585 557 osc~ 66;
#X obj 234 576 osc~ 133;
#X obj 321 511 tgl 15 0 empty empty empty 17 7 0 10 -262144 -1 -1 1
1;
#X msg 278 641 133;
#X msg 310 647 100;
#X msg 335 645 166;
#X msg 367 645 200;
#X obj 305 689 lop~ 6;
#X msg 400 644 233;
#X obj 337 577 random 8;
#X obj 323 539 metro 333;
#X msg 437 645 266;
#X obj 193 378 pad 60;
#X msg 476 647 300;
#X obj 58 351 mod 12;
#X floatatom 43 377 5 0 0 0 - - -;
#X obj 82 318 * 7;
#X obj 180 433 pad 53;
#X obj 243 383 pad 24;
#X obj 178 403 pad 48;
#X obj 225 403 pad 43.02;
#X obj 232 430 pad 45.96;
#X obj 562 262 *~;
#X obj 626 258 hsl 128 15 0 1 0 0 empty empty empty -2 -8 0 10 -262144
-1 -1 0 0;
#X obj 477 585 + 1;
#X obj 520 570 * 83;
#X obj 441 558 random 6;
#X obj 157 656 throw~ phasor_out;
#X msg 122 499 0.3 1 \, 0 7777 1;
#X obj 569 603 cnv 15 100 60 empty empty empty 20 12 0 14 -233017 -66577
0;
#X obj 604 72 midirealtimein;
#X obj 574 122 print;
#X obj 467 -13 loadbang;
#X obj 55 608 metro;
#X obj 59 656 f;
#X obj 661 448 table wavformD;
#X msg 444 402 \; wavformD sinesum 512 100 50 25 12 6 3 2 1 \; wavformD
normalize \;;
#X obj 658 548 dulci 1050 770;
#X obj 196 178 catch~ audioD;
#X obj 245 207 *~ 0.5;
#X obj 550 668 dulci 1234 110;
#X obj 575 727 dulci 1211 220;
#X obj 552 614 dulci 1201 330;
#X obj 690 685 dulci 1123 440;
#X obj 665 619 dulci 1100 660;
#X obj 549 328 *~;
#X obj 628 286 hsl 128 15 0 1 0 0 empty empty empty -2 -8 0 10 -262144
-1 -1 0 0;
#X obj 454 370 loadbang;
#X obj 290 180 hsl 128 15 0 1 0 1 empty empty empty -2 -8 0 10 -262144
-1 -1 0 1;
#X obj 325 600 route 0 1 2 3 4 5 6 7;
#X msg 510 651 66;
#X obj 103 98 goer-osc 133.33 895;
#X obj 51 49 goer-osc 233.33 888;
#X obj 244 71 goer-osc 66.16 3456;
#X obj 215 137 goer-osc 1000 234;
#N canvas 0 0 450 300 (subpatch) 0;
#X array keys_tab 128 float 3;
#A 0 -18.2857 -18.2857 -18.2857 -16.4571 -16.4571 -16.4571 -16.4571
-16.4571 -22.8571 -16.4571 -16.4571 -16.4571 -16.4571 -16.4571 -17.3714
-18.2857 -18.7429 -19.2 -19.6571 -20.1143 -20.5714 -21.0286 -21.4857
-21.9429 -22.5524 -23.1619 -23.7714 -24.2286 -24.6857 -25.1429 -25.6
-26.2095 -26.819 -27.4286 -27.4286 -27.4286 -27.4286 -27.4286 -27.4286
-27.4286 -27.4286 -27.4286 -27.4286 -27.4286 31 -29.2571 -29.2571 -29.2571
-29.2571 0 1 2 3 4 5 6 7 -32.3048 -32.9143 -33.5238 -34.1333 -34.7429
-34.7429 -34.7429 -34.7429 -34.7429 -34.7429 -35.6571 -36.5714 -36.5714
-36.5714 -36.5714 -36.5714 -36.5714 -36.5714 -36.5714 -36.5714 -38.4
-38.4 -38.4 -38.4 -38.4 -38.4 -38.4 -38.4 -38.4 -38.4 -38.4 -38.4 -38.4
-38.4 -38.4 -38.4 -38.4 -38.4 -38.4 -38.4 16 28 26 18 10 19 20 21 15
22 23 -38.4 30 29 -38.4 -38.4 8 11 17 12 14 27 9 25 13 24 -36.5714
-34.7429 -34.7429 -34.7429 -31.0857;
#X coords 0 256 128 0 200 140 1 0 0;
#X restore 859 211 graph;
#X obj 861 167 tabwrite keys_tab;
#X obj 807 114 f;
#X obj 872 115 + 1;
#X obj 835 82 b;
#X floatatom 780 172 5 0 0 0 - - -;
#X msg 761 46 -1;
#X floatatom 929 112 5 0 0 0 - - -;
#X obj 792 245 key;
#X obj 892 25;
#X obj 778 276 tabread keys_tab;
#X floatatom 721 320 5 0 0 0 - - -;
#X obj 778 316 * 100;
#X obj 778 296 + 1;
#X obj 780 341 osc~;
#X obj 785 415 dac~;
#X obj 771 373 *~ 0.005;
#X connect 0 0 3 0;
#X connect 2 0 1 0;
#X connect 2 0 1 1;
#X connect 2 0 10 0;
#X connect 3 0 2 0;
#X connect 4 0 3 1;
#X connect 5 0 8 0;
#X connect 6 0 5 0;
#X connect 7 0 18 0;
#X connect 8 0 9 0;
#X connect 9 0 7 0;
#X connect 11 0 1 0;
#X connect 11 0 16 0;
#X connect 12 0 1 1;
#X connect 12 0 15 0;
#X connect 13 0 11 0;
#X connect 14 0 12 0;
#X connect 15 0 10 0;
#X connect 16 0 10 0;
#X connect 17 0 14 0;
#X connect 17 0 13 0;
#X connect 17 0 19 0;
#X connect 18 0 2 1;
#X connect 19 0 2 2;
#X connect 21 0 30 0;
#X connect 21 1 28 0;
#X connect 24 0 23 0;
#X connect 25 0 27 0;
#X connect 26 0 25 0;
#X connect 26 0 40 0;
#X connect 27 0 24 0;
#X connect 27 0 66 0;
#X connect 28 0 10 0;
#X connect 29 0 28 1;
#X connect 30 0 10 0;
#X connect 31 0 30 1;
#X connect 32 0 33 0;
#X connect 33 0 10 0;
#X connect 34 0 33 1;
#X connect 35 0 36 1;
#X connect 35 0 36 0;
#X connect 36 0 37 0;
#X connect 37 0 1 0;
#X connect 37 0 1 1;
#X connect 37 0 60 0;
#X connect 39 0 37 1;
#X connect 40 0 48 0;
#X connect 41 0 45 0;
#X connect 42 0 45 0;
#X connect 43 0 45 0;
#X connect 44 0 45 0;
#X connect 45 0 39 0;
#X connect 46 0 45 0;
#X connect 47 0 87 0;
#X connect 48 0 47 0;
#X connect 48 0 64 0;
#X connect 49 0 45 0;
#X connect 51 0 45 0;
#X connect 52 0 53 0;
#X connect 54 0 52 0;
#X connect 60 0 10 0;
#X connect 61 0 60 1;
#X connect 62 0 63 0;
#X connect 63 0 48 1;
#X connect 64 0 62 0;
#X connect 66 0 35 0;
#X connect 68 0 69 0;
#X connect 70 0 6 0;
#X connect 76 0 77 0;
#X connect 77 0 1 0;
#X connect 77 0 1 1;
#X connect 77 0 83 0;
#X connect 83 0 10 0;
#X connect 84 0 83 1;
#X connect 85 0 74 0;
#X connect 86 0 77 1;
#X connect 87 0 41 0;
#X connect 87 1 42 0;
#X connect 87 2 43 0;
#X connect 87 3 44 0;
#X connect 87 4 46 0;
#X connect 87 5 49 0;
#X connect 87 6 51 0;
#X connect 87 7 88 0;
#X connect 88 0 45 0;
#X connect 95 0 96 0;
#X connect 95 0 98 0;
#X connect 95 0 94 0;
#X connect 96 0 95 1;
#X connect 97 0 95 0;
#X connect 99 0 95 0;
#X connect 101 0 103 0;
#X connect 102 0 100 0;
#X connect 102 0 94 1;
#X connect 102 0 97 0;
#X connect 103 0 104 0;
#X connect 103 0 106 0;
#X connect 105 0 107 0;
#X connect 106 0 105 0;
#X connect 107 0 109 0;
#X coords 0 728 1 727 85 60 0;
