#N canvas 718 222 450 300 10;
#X obj 137 199 osc~;
#X obj 173 63 loadbang;
#X obj 187 222 *~ 0.001;
#X obj 326 36 r ratio;
#X obj 150 155 / 100;
#X obj 312 117 pow;
#X floatatom 324 179 5 0 0 0 - - -;
#X floatatom 101 101 8 0 0 0 - - -;
#X obj 301 60 t b b f;
#X msg 299 88 100;
#X obj 346 138 * 20000;
#X obj 148 251 throw~ suma;
#X obj 172 131 + 50;
#X obj 176 104 random 19950;
#X obj 191 183 lop~ 55;
#X connect 0 0 2 0;
#X connect 1 0 13 0;
#X connect 2 0 11 0;
#X connect 3 0 8 0;
#X connect 4 0 7 0;
#X connect 4 0 14 0;
#X connect 5 0 6 0;
#X connect 5 0 10 0;
#X connect 6 0 4 1;
#X connect 8 0 13 0;
#X connect 8 1 9 0;
#X connect 8 2 5 1;
#X connect 9 0 5 0;
#X connect 10 0 13 1;
#X connect 12 0 4 0;
#X connect 13 0 12 0;
#X connect 14 0 0 0;
#X coords 0 300 1 299 55 20 0;
