#N canvas 362 92 819 637 10;
#X obj 369 50 \$0;
#X msg 290 26 bang;
#X obj 343 141 table wavform\$0;
#X obj 56 285 tabread4~ wavform\$0;
#X obj 70 199 phasor~;
#X floatatom 188 146 5 0 0 0 - - -;
#X obj 118 368 tabread4~ wavform\$0;
#X obj 199 217 phasor~;
#X obj 199 245 *~ 512;
#X obj 114 397 *~ 0.02;
#X obj 235 451 tabread4~ wavform\$0;
#X obj 247 378 phasor~;
#X obj 247 406 *~ 512;
#X obj 232 480 *~ 0.04;
#X obj 212 32 loadbang;
#X obj 231 109 *;
#X obj 323 207 t b f;
#X obj 240 78 \$1;
#X obj 17 171 switch~;
#X obj 81 149 tgl 15 1 empty empty empty 17 7 0 10 -262144 -1 -1 1
1;
#X floatatom 489 292 5 0 0 0 - - -;
#X obj 517 348 \$2;
#X msg 434 314;
#X obj 175 526 *~;
#X obj 339 490 vline~;
#X obj 38 331 *~ 0.03;
#X obj 170 116 mtof;
#X obj 394 365 r trig;
#X obj 174 61 \$1;
#X obj 197 176 * 1.0124;
#X obj 244 338 * 0.039536;
#X msg 391 421 0.7 5555 \, 0 5555 5555;
#X obj 79 84 * 7;
#X obj 83 23 b;
#X obj 125 124 +;
#X obj 174 569 throw~ phasor_out;
#X obj 47 112 mod 12;
#X obj 70 57 random 4;
#X msg 377 74 \; wavform\$1 sinesum 512 18 54 11 3 2 \; wavform\$1
normalize \;;
#X obj 70 227 *~ 512;
#X obj 87 259 +~ 1;
#X obj 182 322 +~ 1;
#X obj 245 428 +~ 1;
#X connect 0 0 38 0;
#X connect 1 0 0 0;
#X connect 3 0 25 0;
#X connect 4 0 39 0;
#X connect 5 0 4 0;
#X connect 5 0 29 0;
#X connect 5 0 30 0;
#X connect 6 0 9 0;
#X connect 7 0 8 0;
#X connect 8 0 41 0;
#X connect 9 0 23 0;
#X connect 10 0 13 0;
#X connect 11 0 12 0;
#X connect 12 0 42 0;
#X connect 13 0 23 0;
#X connect 14 0 0 0;
#X connect 14 0 28 0;
#X connect 16 0 17 0;
#X connect 16 1 15 1;
#X connect 17 0 15 0;
#X connect 19 0 18 0;
#X connect 23 0 35 0;
#X connect 24 0 23 1;
#X connect 25 0 23 0;
#X connect 26 0 5 0;
#X connect 27 0 31 0;
#X connect 27 0 33 0;
#X connect 28 0 34 1;
#X connect 29 0 7 0;
#X connect 30 0 11 0;
#X connect 31 0 24 0;
#X connect 32 0 36 0;
#X connect 33 0 37 0;
#X connect 34 0 26 0;
#X connect 36 0 34 0;
#X connect 37 0 32 0;
#X connect 39 0 40 0;
#X connect 40 0 3 0;
#X connect 41 0 6 0;
#X connect 42 0 10 0;
